<svg width="41" height="33" viewBox="0 0 41 33" fill="none" xmlns="http://www.w3.org/2000/svg">
<path d="M0 0V33H40.5569V0H0ZM4.03042 28.9693V4.03074H36.5265V28.9693H4.03042Z" fill="white"/>
<path d="M32.9997 8.81665H18.8931V11.5879H32.9997V8.81665Z" fill="white"/>
<path d="M32.9997 15.1145H18.8931V17.8858H32.9997V15.1145Z" fill="white"/>
<path d="M32.9996 21.4121H7.55713V24.1833H32.9996V21.4121Z" fill="white"/>
<path d="M12.0916 12.4176C13.6051 12.4176 14.8364 11.186 14.8364 9.67253C14.8364 8.15901 13.605 6.92749 12.0916 6.92749C10.5781 6.92749 9.34692 8.15901 9.34692 9.67253C9.34692 11.186 10.5781 12.4176 12.0916 12.4176Z" fill="white"/>
<path d="M15.153 15.8604C15.153 14.8131 14.4182 13.552 13.4802 12.9896L13.4504 12.9714H10.7329L10.7031 12.9896C9.76505 13.552 9.03027 14.8131 9.03027 15.8604V17.8856H15.1531V15.8604H15.153Z" fill="white"/>
</svg>
