<svg width="42" height="45" viewBox="0 0 42 45" fill="none" xmlns="http://www.w3.org/2000/svg">
<path d="M30.4058 31.202C28.6522 30.5464 26.0951 28.6318 26.0951 27.4399C26.0951 26.6502 26.0951 25.6638 26.0951 24.3116C27.1085 23.1841 27.8791 20.8952 28.3371 18.3006C29.4053 17.9192 30.0157 17.3089 30.7783 14.6386C31.5889 11.7941 29.5577 11.8908 29.5577 11.8908C31.2006 6.45177 29.0379 1.34011 25.4151 1.71539C22.9163 -2.65619 14.5467 2.714 11.9243 2.3397C11.9243 3.83894 12.5486 4.96299 12.5486 4.96299C11.637 6.69386 11.9887 10.1451 12.2446 11.8908C12.0966 11.8882 10.2596 11.9073 11.0388 14.6386C11.8015 17.3088 12.4118 17.9192 13.4802 18.3006C13.9373 20.8952 14.7078 23.1841 15.7221 24.3116C15.7221 25.6638 15.7221 26.6502 15.7221 27.4399C15.7221 28.6318 13.0057 30.6396 11.4115 31.202C8.11779 32.3618 0.0241799 35.6972 0.546606 41.945C0.671873 43.4444 8.91615 45.0002 20.9086 45.0002C32.9002 45.0002 41.1454 43.4444 41.2707 41.945C41.7931 35.6911 33.6786 32.4262 30.4058 31.202Z" fill="white"/>
</svg>
