<svg width="48" height="52" viewBox="0 0 48 52" fill="none" xmlns="http://www.w3.org/2000/svg">
<path d="M24.0002 11.9895C27.3106 11.9895 29.9954 9.30558 29.9954 5.99518C29.9954 2.68478 27.3107 0 24.0002 0C20.6897 0 18.0059 2.68468 18.0059 5.99518C18.0059 9.30568 20.6898 11.9895 24.0002 11.9895Z" fill="white"/>
<path d="M24.0002 23.139C28.1182 23.139 32.3355 21.713 31.6775 17.7652C31.4095 16.1619 30.0837 13.9144 29.0766 12.9082C28.9462 12.7786 28.3559 12.7447 28.1955 12.8441C26.9735 13.5979 25.5387 14.0373 24.0001 14.0373C22.4623 14.0373 21.0276 13.5979 19.8056 12.8441C19.6451 12.7447 19.0547 12.7786 18.9244 12.9082C17.9181 13.9144 16.5909 16.1619 16.3236 17.7652C15.6656 21.7131 19.883 23.139 24.0002 23.139Z" fill="white"/>
<path d="M7.74496 40.7662C11.0554 40.7662 13.7401 38.0822 13.7401 34.7718C13.7401 31.4606 11.0555 28.7766 7.74496 28.7766C4.43446 28.7766 1.75049 31.4606 1.75049 34.7718C1.75059 38.0822 4.43456 40.7662 7.74496 40.7662Z" fill="white"/>
<path d="M12.8211 41.6856C12.6908 41.5545 12.1005 41.5222 11.94 41.6208C10.7172 42.3746 9.28328 42.8134 7.74469 42.8134C6.20619 42.8134 4.77214 42.3747 3.55011 41.6208C3.3896 41.5223 2.79846 41.5545 2.66826 41.6856C1.6619 42.6912 0.335431 44.9386 0.0682508 46.5419C-0.589915 50.4899 3.62748 51.9151 7.74469 51.9151C11.8627 51.9151 16.0801 50.4899 15.4218 46.5419C15.154 44.9386 13.8275 42.6912 12.8211 41.6856Z" fill="white"/>
<path d="M40.2554 40.7662C43.5658 40.7662 46.2498 38.0822 46.2498 34.7718C46.2498 31.4606 43.5658 28.7766 40.2554 28.7766C36.945 28.7766 34.2603 31.4606 34.2603 34.7718C34.2604 38.0822 36.945 40.7662 40.2554 40.7662Z" fill="white"/>
<path d="M47.9319 46.5419C47.6646 44.9386 46.3381 42.6912 45.3319 41.6856C45.2015 41.5545 44.6104 41.5222 44.4499 41.6208C43.2279 42.3746 41.7939 42.8134 40.2553 42.8134C38.7168 42.8134 37.2828 42.3747 36.06 41.6208C35.8995 41.5223 35.3092 41.5545 35.1789 41.6856C34.1726 42.6912 32.8465 44.9386 32.5785 46.5419C31.9204 50.4899 36.1373 51.9151 40.2553 51.9151C44.3726 51.9151 48.5899 50.4899 47.9319 46.5419Z" fill="white"/>
<path d="M32.1358 37.6153L24.9886 33.4893V25.2372C24.9886 24.6909 24.5462 24.2485 23.9999 24.2485C23.4544 24.2485 23.012 24.6909 23.012 25.2372V33.4893L15.8648 37.6153C15.3923 37.8884 15.2295 38.4936 15.5026 38.9662C15.7758 39.4389 16.3808 39.6007 16.8534 39.3283L23.9998 35.2015L31.1471 39.3275C31.6197 39.6007 32.2241 39.4388 32.4972 38.9661C32.7703 38.4936 32.6083 37.8884 32.1358 37.6153Z" fill="white"/>
</svg>
