<svg width="35" height="44" viewBox="0 0 35 44" fill="none" xmlns="http://www.w3.org/2000/svg">
<path d="M26.7434 33.3213H7.43896V35.1658H26.7434V33.3213Z" fill="white"/>
<path d="M26.7434 25.8408H7.43896V27.6853H26.7434V25.8408Z" fill="white"/>
<path d="M26.7434 18.3608H7.43896V20.2059H26.7434V18.3608Z" fill="white"/>
<path d="M26.7434 10.8818H17.6445V12.7264H26.7434V10.8818Z" fill="white"/>
<path d="M30.2467 0H14.2811C13.1349 0 12.0355 0.455634 11.225 1.26538L1.26597 11.225C0.455296 12.0354 0 13.1351 0 14.2814V39.3455C0 41.5155 1.76582 43.281 3.93587 43.281H30.2466C32.4163 43.281 34.1821 41.5155 34.1821 39.3455V3.93435C34.1822 1.76489 32.4163 0 30.2467 0ZM12.8857 2.73457V11.5811C12.8857 12.5375 12.5134 12.9102 11.5571 12.9102H2.71005L12.8857 2.73457ZM31.9691 39.3455C31.9691 40.2954 31.196 41.0676 30.2467 41.0676H3.93587C2.98597 41.0676 2.21308 40.2954 2.21308 39.3455V14.8777H12.742C13.9061 14.8777 14.8535 13.9303 14.8535 12.7656V2.21342H30.2467C31.196 2.21342 31.9691 2.98495 31.9691 3.93435V39.3455Z" fill="white"/>
</svg>
