<svg width="40" height="49" viewBox="0 0 40 49" fill="none" xmlns="http://www.w3.org/2000/svg">
<path d="M0 0V48.5608H39.1619V46.9943V0H0ZM36.029 45.4278H21.9307V40.7284V36.029H17.2313V40.7284V45.4278H3.13293V3.13293H36.029V45.4278Z" fill="white"/>
<path d="M12.5319 7.83252H7.83252V12.5319H12.5319V7.83252Z" fill="white"/>
<path d="M21.9308 7.83252H17.2314V12.5319H21.9308V7.83252Z" fill="white"/>
<path d="M31.3293 7.83252H26.6299V12.5319H31.3293V7.83252Z" fill="white"/>
<path d="M12.5319 17.2312H7.83252V21.9306H12.5319V17.2312Z" fill="white"/>
<path d="M21.9308 17.2312H17.2314V21.9306H21.9308V17.2312Z" fill="white"/>
<path d="M31.3293 17.2312H26.6299V21.9306H31.3293V17.2312Z" fill="white"/>
<path d="M12.5319 26.6301H7.83252V31.3295H12.5319V26.6301Z" fill="white"/>
<path d="M21.9308 26.6301H17.2314V31.3295H21.9308V26.6301Z" fill="white"/>
<path d="M31.3293 26.6301H26.6299V31.3295H31.3293V26.6301Z" fill="white"/>
<path d="M12.5319 36.0291H7.83252V40.7284H12.5319V36.0291Z" fill="white"/>
<path d="M31.3293 36.0291H26.6299V40.7284H31.3293V36.0291Z" fill="white"/>
</svg>
