<?xml version="1.0" encoding="UTF-8"?>
<svg xmlns="http://www.w3.org/2000/svg" xmlns:xlink="http://www.w3.org/1999/xlink" width="20px" height="20px" viewBox="0 0 20 19" version="1.1">
<g id="surface1">
<path style=" stroke:none;fill-rule:nonzero;fill:rgb(2.352941%,78.039217%,33.333334%);fill-opacity:1;" d="M 4.28125 -0.00390625 C 4.300781 -0.00390625 4.320312 -0.00390625 4.34375 -0.00390625 C 4.410156 -0.00390625 4.476562 -0.00390625 4.542969 -0.00390625 C 4.59375 -0.00390625 4.640625 -0.00390625 4.691406 -0.00390625 C 4.8125 -0.00390625 4.929688 -0.00390625 5.050781 -0.00390625 C 5.195312 -0.00390625 5.335938 -0.00390625 5.480469 -0.00390625 C 5.828125 -0.00390625 6.175781 -0.00390625 6.523438 -0.00390625 C 6.6875 -0.00390625 6.851562 -0.00390625 7.015625 -0.00390625 C 7.578125 -0.00390625 8.140625 -0.00390625 8.703125 -0.00390625 C 8.738281 -0.00390625 8.773438 -0.00390625 8.808594 -0.00390625 C 8.84375 -0.00390625 8.878906 -0.00390625 8.914062 -0.00390625 C 8.988281 -0.00390625 9.058594 -0.00390625 9.128906 -0.00390625 C 9.144531 -0.00390625 9.164062 -0.00390625 9.183594 -0.00390625 C 9.753906 -0.00390625 10.324219 -0.00390625 10.894531 -0.00390625 C 11.496094 -0.00390625 12.101562 -0.0078125 12.703125 -0.0078125 C 12.769531 -0.0078125 12.835938 -0.0078125 12.902344 -0.0078125 C 12.917969 -0.0078125 12.9375 -0.0078125 12.953125 -0.0078125 C 13.214844 -0.0078125 13.476562 -0.0078125 13.738281 -0.0078125 C 14.003906 -0.0078125 14.265625 -0.0078125 14.53125 -0.0078125 C 14.6875 -0.0078125 14.84375 -0.0078125 15 -0.0078125 C 15.117188 -0.0078125 15.234375 -0.0078125 15.351562 -0.0078125 C 15.398438 -0.0078125 15.445312 -0.0078125 15.492188 -0.0078125 C 16.523438 -0.0117188 17.523438 0.304688 18.320312 0.929688 C 18.332031 0.941406 18.34375 0.949219 18.355469 0.957031 C 18.609375 1.15625 18.839844 1.367188 19.039062 1.613281 C 19.050781 1.625 19.058594 1.636719 19.066406 1.644531 C 19.648438 2.359375 20.003906 3.261719 20.003906 4.167969 C 20.003906 4.1875 20.003906 4.207031 20.003906 4.226562 C 20.003906 4.289062 20.003906 4.351562 20.003906 4.414062 C 20.003906 4.457031 20.003906 4.503906 20.003906 4.550781 C 20.003906 4.660156 20.003906 4.773438 20.003906 4.882812 C 20.003906 5.019531 20.003906 5.152344 20.003906 5.285156 C 20.003906 5.609375 20.003906 5.933594 20.003906 6.257812 C 20.003906 6.410156 20.003906 6.5625 20.003906 6.714844 C 20.003906 7.242188 20.003906 7.765625 20.003906 8.289062 C 20.003906 8.324219 20.003906 8.355469 20.003906 8.386719 C 20.003906 8.421875 20.003906 8.453125 20.003906 8.488281 C 20.003906 8.554688 20.003906 8.621094 20.003906 8.6875 C 20.003906 8.703125 20.003906 8.71875 20.003906 8.734375 C 20.003906 9.269531 20.003906 9.800781 20.003906 10.332031 C 20.007812 10.894531 20.007812 11.457031 20.007812 12.019531 C 20.007812 12.082031 20.007812 12.144531 20.007812 12.207031 C 20.007812 12.21875 20.007812 12.234375 20.007812 12.25 C 20.007812 12.496094 20.007812 12.738281 20.007812 12.984375 C 20.007812 13.230469 20.007812 13.476562 20.007812 13.722656 C 20.007812 13.867188 20.007812 14.015625 20.007812 14.160156 C 20.007812 14.269531 20.007812 14.378906 20.007812 14.488281 C 20.007812 14.53125 20.007812 14.574219 20.007812 14.621094 C 20.007812 14.992188 19.984375 15.363281 19.886719 15.726562 C 19.878906 15.746094 19.875 15.765625 19.871094 15.785156 C 19.820312 15.976562 19.753906 16.160156 19.679688 16.339844 C 19.675781 16.355469 19.667969 16.367188 19.664062 16.382812 C 19.507812 16.753906 19.285156 17.09375 19.019531 17.402344 C 19.011719 17.414062 19 17.425781 18.992188 17.4375 C 18.785156 17.679688 18.558594 17.898438 18.300781 18.089844 C 18.285156 18.101562 18.285156 18.101562 18.269531 18.113281 C 17.550781 18.640625 16.636719 19.003906 15.71875 19.003906 C 15.6875 19.003906 15.6875 19.003906 15.65625 19.003906 C 15.589844 19.003906 15.523438 19.003906 15.457031 19.003906 C 15.40625 19.003906 15.359375 19.003906 15.308594 19.003906 C 15.191406 19.003906 15.070312 19.003906 14.953125 19.003906 C 14.808594 19.003906 14.664062 19.003906 14.519531 19.003906 C 14.175781 19.003906 13.828125 19.003906 13.480469 19.003906 C 13.316406 19.003906 13.152344 19.003906 12.988281 19.003906 C 12.425781 19.003906 11.863281 19.003906 11.300781 19.003906 C 11.265625 19.003906 11.230469 19.003906 11.195312 19.003906 C 11.167969 19.003906 11.167969 19.003906 11.144531 19.003906 C 11.054688 19.003906 10.964844 19.003906 10.878906 19.003906 C 10.851562 19.003906 10.851562 19.003906 10.824219 19.003906 C 10.253906 19.003906 9.683594 19.007812 9.113281 19.007812 C 8.511719 19.007812 7.90625 19.007812 7.304688 19.007812 C 7.238281 19.007812 7.171875 19.007812 7.105469 19.007812 C 7.089844 19.007812 7.074219 19.007812 7.054688 19.007812 C 6.792969 19.007812 6.53125 19.007812 6.269531 19.007812 C 6.007812 19.007812 5.742188 19.007812 5.480469 19.007812 C 5.324219 19.007812 5.167969 19.007812 5.011719 19.007812 C 4.894531 19.007812 4.777344 19.007812 4.660156 19.007812 C 4.613281 19.007812 4.566406 19.007812 4.519531 19.007812 C 3.285156 19.015625 2.160156 18.550781 1.28125 17.734375 C 1.179688 17.636719 1.089844 17.53125 1 17.421875 C 0.984375 17.40625 0.96875 17.386719 0.953125 17.367188 C 0.265625 16.546875 -0.0078125 15.566406 -0.00390625 14.53125 C -0.00390625 14.488281 -0.00390625 14.441406 -0.00390625 14.398438 C -0.00390625 14.285156 -0.00390625 14.175781 -0.00390625 14.066406 C -0.00390625 13.933594 -0.00390625 13.800781 -0.00390625 13.664062 C -0.00390625 13.40625 -0.00390625 13.144531 -0.00390625 12.886719 C -0.00390625 12.65625 -0.00390625 12.429688 -0.00390625 12.203125 C -0.00390625 12.1875 -0.00390625 12.171875 -0.00390625 12.15625 C -0.00390625 12.09375 -0.00390625 12.03125 -0.00390625 11.972656 C -0.00390625 11.394531 -0.00390625 10.820312 -0.00390625 10.242188 C -0.00390625 9.730469 -0.00390625 9.21875 -0.00390625 8.707031 C -0.00390625 8.132812 -0.00390625 7.558594 -0.00390625 6.984375 C -0.00390625 6.921875 -0.00390625 6.859375 -0.00390625 6.796875 C -0.00390625 6.785156 -0.00390625 6.769531 -0.00390625 6.753906 C -0.00390625 6.523438 -0.00390625 6.296875 -0.00390625 6.070312 C -0.00390625 5.8125 -0.00390625 5.550781 -0.00390625 5.292969 C -0.00390625 5.160156 -0.00390625 5.027344 -0.00390625 4.898438 C -0.00390625 4.777344 -0.00390625 4.65625 -0.00390625 4.535156 C -0.00390625 4.488281 -0.00390625 4.445312 -0.00390625 4.402344 C -0.0078125 3.515625 0.203125 2.609375 0.757812 1.882812 C 0.769531 1.871094 0.777344 1.855469 0.785156 1.84375 C 1.042969 1.503906 1.328125 1.191406 1.679688 0.929688 C 1.699219 0.914062 1.71875 0.902344 1.738281 0.886719 C 1.914062 0.75 2.101562 0.640625 2.296875 0.53125 C 2.308594 0.523438 2.324219 0.519531 2.335938 0.511719 C 2.910156 0.195312 3.617188 -0.00390625 4.28125 -0.00390625 Z M 4.28125 -0.00390625 "/>
<path style=" stroke:none;fill-rule:nonzero;fill:rgb(99.607843%,99.607843%,99.607843%);fill-opacity:1;" d="M 12.4375 3.8125 C 12.460938 3.820312 12.460938 3.820312 12.484375 3.828125 C 13.347656 4.105469 14.160156 4.5 14.84375 5.074219 C 14.859375 5.085938 14.875 5.097656 14.890625 5.109375 C 14.929688 5.140625 14.964844 5.171875 15.003906 5.207031 C 15.023438 5.222656 15.039062 5.234375 15.058594 5.25 C 15.15625 5.332031 15.246094 5.414062 15.328125 5.507812 C 15.371094 5.554688 15.414062 5.597656 15.457031 5.644531 C 16.320312 6.546875 16.722656 7.722656 16.664062 8.929688 C 16.652344 9.050781 16.632812 9.167969 16.613281 9.285156 C 16.605469 9.324219 16.597656 9.363281 16.59375 9.402344 C 16.5 9.964844 16.222656 10.535156 15.882812 11 C 15.875 11.011719 15.867188 11.023438 15.859375 11.035156 C 15.691406 11.265625 15.511719 11.488281 15.308594 11.695312 C 15.273438 11.734375 15.234375 11.773438 15.199219 11.816406 C 14.996094 12.035156 14.785156 12.253906 14.550781 12.445312 C 14.503906 12.484375 14.457031 12.523438 14.414062 12.566406 C 14.304688 12.660156 14.195312 12.75 14.082031 12.839844 C 14.019531 12.886719 13.960938 12.933594 13.898438 12.984375 C 13.777344 13.085938 13.648438 13.179688 13.519531 13.273438 C 13.488281 13.296875 13.457031 13.324219 13.425781 13.347656 C 13.234375 13.484375 13.042969 13.621094 12.847656 13.757812 C 12.832031 13.765625 12.816406 13.777344 12.800781 13.785156 C 12.132812 14.25 11.441406 14.6875 10.730469 15.085938 C 10.710938 15.097656 10.695312 15.105469 10.675781 15.117188 C 9.824219 15.59375 9.824219 15.59375 9.550781 15.542969 C 9.480469 15.511719 9.445312 15.484375 9.402344 15.425781 C 9.363281 15.253906 9.410156 15.082031 9.441406 14.910156 C 9.484375 14.691406 9.523438 14.46875 9.523438 14.242188 C 9.523438 14.226562 9.523438 14.210938 9.523438 14.191406 C 9.519531 14.066406 9.488281 13.964844 9.394531 13.871094 C 9.179688 13.742188 8.945312 13.6875 8.695312 13.65625 C 7.445312 13.472656 6.203125 13.007812 5.234375 12.21875 C 5.214844 12.199219 5.191406 12.183594 5.171875 12.167969 C 4.902344 11.953125 4.648438 11.722656 4.4375 11.457031 C 4.417969 11.4375 4.402344 11.417969 4.386719 11.398438 C 4.140625 11.117188 3.9375 10.800781 3.777344 10.46875 C 3.769531 10.457031 3.765625 10.445312 3.757812 10.433594 C 3.261719 9.425781 3.1875 8.246094 3.578125 7.195312 C 3.867188 6.449219 4.359375 5.695312 5.011719 5.183594 C 5.046875 5.15625 5.082031 5.125 5.117188 5.09375 C 5.949219 4.386719 7.007812 3.90625 8.09375 3.667969 C 8.113281 3.664062 8.132812 3.65625 8.152344 3.652344 C 9.554688 3.335938 11.074219 3.371094 12.4375 3.8125 Z M 12.4375 3.8125 "/>
<path style=" stroke:none;fill-rule:nonzero;fill:rgb(2.745098%,78.039217%,33.333334%);fill-opacity:1;" d="M 9.542969 7.226562 C 9.585938 7.226562 9.625 7.222656 9.667969 7.222656 C 9.863281 7.222656 9.863281 7.222656 9.9375 7.269531 C 9.972656 7.308594 10 7.347656 10.03125 7.390625 C 10.050781 7.417969 10.074219 7.445312 10.09375 7.472656 C 10.117188 7.5 10.140625 7.53125 10.160156 7.558594 C 10.1875 7.589844 10.210938 7.621094 10.234375 7.652344 C 10.246094 7.671875 10.257812 7.6875 10.273438 7.703125 C 10.332031 7.78125 10.390625 7.859375 10.453125 7.9375 C 10.464844 7.949219 10.476562 7.964844 10.488281 7.980469 C 10.5625 8.078125 10.636719 8.171875 10.710938 8.265625 C 10.796875 8.378906 10.886719 8.492188 10.976562 8.605469 C 10.988281 8.617188 10.996094 8.632812 11.007812 8.648438 C 11.066406 8.722656 11.125 8.800781 11.183594 8.878906 C 11.195312 8.894531 11.207031 8.914062 11.21875 8.929688 C 11.230469 8.941406 11.238281 8.953125 11.25 8.96875 C 11.25 8.9375 11.25 8.9375 11.25 8.90625 C 11.25 8.707031 11.25 8.511719 11.253906 8.316406 C 11.253906 8.214844 11.253906 8.117188 11.253906 8.015625 C 11.257812 7.917969 11.257812 7.820312 11.257812 7.722656 C 11.257812 7.6875 11.257812 7.648438 11.257812 7.613281 C 11.257812 7.558594 11.257812 7.507812 11.261719 7.457031 C 11.261719 7.433594 11.261719 7.433594 11.261719 7.410156 C 11.261719 7.304688 11.261719 7.304688 11.296875 7.257812 C 11.351562 7.226562 11.402344 7.230469 11.464844 7.230469 C 11.484375 7.230469 11.484375 7.230469 11.503906 7.230469 C 11.53125 7.230469 11.558594 7.230469 11.585938 7.230469 C 11.628906 7.230469 11.671875 7.230469 11.710938 7.230469 C 11.738281 7.230469 11.765625 7.230469 11.792969 7.230469 C 11.816406 7.230469 11.84375 7.230469 11.867188 7.230469 C 11.929688 7.238281 11.929688 7.238281 11.960938 7.261719 C 12 7.3125 11.996094 7.351562 11.996094 7.414062 C 11.996094 7.4375 11.996094 7.460938 11.996094 7.484375 C 11.996094 7.511719 11.996094 7.539062 11.996094 7.566406 C 11.996094 7.59375 11.996094 7.625 11.996094 7.652344 C 11.996094 7.730469 11.996094 7.804688 11.996094 7.882812 C 11.996094 7.964844 11.996094 8.042969 11.996094 8.125 C 11.996094 8.261719 11.996094 8.394531 11.996094 8.53125 C 11.996094 8.6875 11.996094 8.84375 11.996094 9 C 11.996094 9.136719 11.996094 9.269531 11.996094 9.402344 C 11.996094 9.484375 11.996094 9.566406 11.996094 9.644531 C 11.996094 9.71875 11.996094 9.796875 11.996094 9.871094 C 11.996094 9.898438 11.996094 9.925781 11.996094 9.953125 C 11.996094 9.992188 11.996094 10.03125 11.996094 10.066406 C 11.996094 10.089844 11.996094 10.109375 11.996094 10.132812 C 11.988281 10.183594 11.988281 10.183594 11.960938 10.21875 C 11.882812 10.269531 11.765625 10.253906 11.675781 10.253906 C 11.632812 10.253906 11.589844 10.253906 11.550781 10.253906 C 11.359375 10.257812 11.359375 10.257812 11.289062 10.214844 C 11.257812 10.183594 11.234375 10.148438 11.207031 10.109375 C 11.1875 10.082031 11.167969 10.054688 11.144531 10.027344 C 11.125 10 11.101562 9.972656 11.078125 9.941406 C 11.054688 9.910156 11.03125 9.878906 11.003906 9.84375 C 10.984375 9.820312 10.984375 9.820312 10.964844 9.796875 C 10.90625 9.71875 10.847656 9.644531 10.789062 9.566406 C 10.71875 9.476562 10.648438 9.386719 10.582031 9.296875 C 10.445312 9.121094 10.308594 8.945312 10.167969 8.773438 C 10.15625 8.757812 10.144531 8.742188 10.132812 8.726562 C 10.125 8.714844 10.113281 8.699219 10.101562 8.6875 C 10.0625 8.636719 10.027344 8.582031 9.988281 8.53125 C 9.988281 8.550781 9.988281 8.570312 9.988281 8.589844 C 9.988281 8.78125 9.988281 8.96875 9.988281 9.15625 C 9.984375 9.253906 9.984375 9.351562 9.984375 9.449219 C 9.984375 9.542969 9.984375 9.636719 9.984375 9.730469 C 9.980469 9.765625 9.980469 9.800781 9.980469 9.835938 C 9.980469 9.886719 9.980469 9.9375 9.980469 9.988281 C 9.980469 10.007812 9.980469 10.007812 9.980469 10.03125 C 9.980469 10.101562 9.972656 10.144531 9.933594 10.203125 C 9.875 10.257812 9.835938 10.253906 9.753906 10.253906 C 9.742188 10.253906 9.726562 10.253906 9.714844 10.253906 C 9.6875 10.253906 9.660156 10.253906 9.632812 10.253906 C 9.589844 10.25 9.546875 10.25 9.503906 10.253906 C 9.476562 10.253906 9.453125 10.253906 9.425781 10.25 C 9.402344 10.25 9.375 10.25 9.351562 10.25 C 9.289062 10.242188 9.289062 10.242188 9.257812 10.210938 C 9.222656 10.152344 9.222656 10.113281 9.222656 10.046875 C 9.222656 10.023438 9.222656 10 9.222656 9.972656 C 9.222656 9.949219 9.222656 9.921875 9.222656 9.894531 C 9.222656 9.867188 9.222656 9.835938 9.222656 9.808594 C 9.222656 9.734375 9.222656 9.65625 9.222656 9.578125 C 9.222656 9.5 9.222656 9.417969 9.222656 9.339844 C 9.222656 9.207031 9.222656 9.070312 9.222656 8.9375 C 9.222656 8.78125 9.222656 8.625 9.222656 8.46875 C 9.222656 8.335938 9.222656 8.203125 9.222656 8.070312 C 9.222656 7.992188 9.222656 7.910156 9.222656 7.832031 C 9.222656 7.757812 9.222656 7.679688 9.222656 7.605469 C 9.222656 7.578125 9.222656 7.550781 9.222656 7.523438 C 9.222656 7.484375 9.222656 7.449219 9.222656 7.410156 C 9.222656 7.390625 9.222656 7.371094 9.222656 7.347656 C 9.230469 7.296875 9.230469 7.296875 9.257812 7.261719 C 9.335938 7.210938 9.453125 7.226562 9.542969 7.226562 Z M 9.542969 7.226562 "/>
<path style=" stroke:none;fill-rule:nonzero;fill:rgb(2.352941%,78.039217%,33.333334%);fill-opacity:1;" d="M 12.589844 7.230469 C 12.605469 7.230469 12.625 7.230469 12.640625 7.230469 C 12.660156 7.230469 12.679688 7.230469 12.695312 7.230469 C 12.726562 7.230469 12.726562 7.230469 12.753906 7.230469 C 12.820312 7.230469 12.882812 7.230469 12.949219 7.230469 C 12.992188 7.230469 13.039062 7.230469 13.082031 7.230469 C 13.175781 7.230469 13.269531 7.230469 13.363281 7.230469 C 13.480469 7.230469 13.601562 7.230469 13.722656 7.230469 C 13.8125 7.230469 13.90625 7.230469 14 7.230469 C 14.042969 7.230469 14.085938 7.230469 14.132812 7.230469 C 14.191406 7.230469 14.253906 7.230469 14.316406 7.230469 C 14.335938 7.230469 14.351562 7.230469 14.371094 7.230469 C 14.390625 7.230469 14.40625 7.230469 14.421875 7.230469 C 14.445312 7.230469 14.445312 7.230469 14.46875 7.230469 C 14.515625 7.242188 14.535156 7.257812 14.566406 7.296875 C 14.574219 7.355469 14.574219 7.355469 14.574219 7.425781 C 14.574219 7.4375 14.574219 7.449219 14.574219 7.460938 C 14.574219 7.488281 14.574219 7.515625 14.574219 7.539062 C 14.574219 7.582031 14.574219 7.621094 14.574219 7.660156 C 14.574219 7.6875 14.574219 7.710938 14.574219 7.738281 C 14.574219 7.761719 14.574219 7.785156 14.574219 7.808594 C 14.566406 7.867188 14.566406 7.867188 14.542969 7.898438 C 14.488281 7.933594 14.445312 7.929688 14.375 7.929688 C 14.363281 7.929688 14.351562 7.929688 14.335938 7.929688 C 14.292969 7.929688 14.25 7.929688 14.207031 7.929688 C 14.175781 7.929688 14.148438 7.929688 14.117188 7.929688 C 14.039062 7.929688 13.960938 7.925781 13.878906 7.925781 C 13.800781 7.925781 13.71875 7.925781 13.640625 7.925781 C 13.480469 7.925781 13.324219 7.925781 13.167969 7.921875 C 13.175781 8.148438 13.175781 8.148438 13.1875 8.378906 C 13.226562 8.378906 13.265625 8.378906 13.308594 8.378906 C 13.4375 8.378906 13.570312 8.382812 13.699219 8.382812 C 13.777344 8.382812 13.859375 8.386719 13.9375 8.386719 C 14.015625 8.386719 14.089844 8.386719 14.167969 8.386719 C 14.195312 8.386719 14.226562 8.386719 14.253906 8.386719 C 14.296875 8.386719 14.335938 8.390625 14.378906 8.390625 C 14.402344 8.390625 14.425781 8.390625 14.449219 8.390625 C 14.503906 8.398438 14.503906 8.398438 14.542969 8.421875 C 14.578125 8.472656 14.574219 8.523438 14.574219 8.582031 C 14.574219 8.59375 14.574219 8.609375 14.574219 8.621094 C 14.574219 8.648438 14.574219 8.671875 14.574219 8.699219 C 14.574219 8.738281 14.574219 8.78125 14.574219 8.820312 C 14.574219 8.84375 14.574219 8.871094 14.574219 8.898438 C 14.574219 8.921875 14.574219 8.941406 14.574219 8.96875 C 14.566406 9.023438 14.566406 9.023438 14.542969 9.058594 C 14.488281 9.09375 14.445312 9.089844 14.375 9.089844 C 14.363281 9.089844 14.351562 9.089844 14.335938 9.089844 C 14.292969 9.089844 14.25 9.089844 14.207031 9.085938 C 14.175781 9.085938 14.148438 9.085938 14.117188 9.085938 C 14.039062 9.085938 13.960938 9.085938 13.878906 9.085938 C 13.800781 9.085938 13.71875 9.085938 13.640625 9.085938 C 13.480469 9.085938 13.324219 9.082031 13.167969 9.082031 C 13.175781 9.308594 13.175781 9.308594 13.1875 9.539062 C 13.226562 9.539062 13.265625 9.539062 13.308594 9.539062 C 13.4375 9.539062 13.570312 9.542969 13.699219 9.542969 C 13.777344 9.542969 13.859375 9.546875 13.9375 9.546875 C 14.015625 9.546875 14.089844 9.546875 14.167969 9.546875 C 14.195312 9.550781 14.226562 9.550781 14.253906 9.550781 C 14.296875 9.550781 14.335938 9.550781 14.378906 9.550781 C 14.414062 9.550781 14.414062 9.550781 14.449219 9.550781 C 14.503906 9.558594 14.503906 9.558594 14.566406 9.59375 C 14.574219 9.652344 14.574219 9.652344 14.574219 9.726562 C 14.574219 9.738281 14.574219 9.75 14.574219 9.765625 C 14.574219 9.792969 14.574219 9.820312 14.574219 9.847656 C 14.574219 9.886719 14.574219 9.929688 14.574219 9.972656 C 14.574219 9.996094 14.574219 10.023438 14.574219 10.050781 C 14.574219 10.074219 14.574219 10.097656 14.574219 10.125 C 14.566406 10.183594 14.566406 10.183594 14.539062 10.214844 C 14.496094 10.246094 14.476562 10.25 14.421875 10.25 C 14.40625 10.25 14.390625 10.25 14.371094 10.25 C 14.355469 10.25 14.335938 10.25 14.316406 10.25 C 14.296875 10.25 14.277344 10.25 14.257812 10.25 C 14.191406 10.25 14.128906 10.25 14.066406 10.25 C 14.019531 10.25 13.976562 10.25 13.929688 10.25 C 13.835938 10.25 13.742188 10.25 13.652344 10.25 C 13.53125 10.25 13.410156 10.25 13.289062 10.25 C 13.199219 10.25 13.105469 10.25 13.015625 10.25 C 12.96875 10.25 12.925781 10.25 12.882812 10.25 C 12.820312 10.25 12.757812 10.25 12.695312 10.25 C 12.679688 10.25 12.660156 10.25 12.640625 10.25 C 12.617188 10.25 12.617188 10.25 12.589844 10.25 C 12.574219 10.25 12.5625 10.25 12.546875 10.25 C 12.492188 10.238281 12.476562 10.226562 12.449219 10.183594 C 12.441406 10.132812 12.441406 10.132812 12.441406 10.066406 C 12.441406 10.042969 12.441406 10.019531 12.4375 9.996094 C 12.441406 9.96875 12.441406 9.941406 12.441406 9.914062 C 12.441406 9.886719 12.441406 9.855469 12.441406 9.828125 C 12.4375 9.75 12.4375 9.675781 12.441406 9.597656 C 12.441406 9.515625 12.441406 9.4375 12.4375 9.355469 C 12.4375 9.21875 12.4375 9.085938 12.441406 8.949219 C 12.441406 8.792969 12.441406 8.636719 12.441406 8.480469 C 12.4375 8.34375 12.4375 8.210938 12.441406 8.074219 C 12.441406 7.996094 12.441406 7.914062 12.4375 7.835938 C 12.4375 7.757812 12.4375 7.683594 12.441406 7.609375 C 12.441406 7.582031 12.441406 7.554688 12.441406 7.527344 C 12.4375 7.488281 12.441406 7.449219 12.441406 7.414062 C 12.441406 7.378906 12.441406 7.378906 12.441406 7.347656 C 12.449219 7.296875 12.449219 7.296875 12.472656 7.261719 C 12.515625 7.234375 12.539062 7.230469 12.589844 7.230469 Z M 12.589844 7.230469 "/>
<path style=" stroke:none;fill-rule:nonzero;fill:rgb(2.745098%,78.039217%,33.333334%);fill-opacity:1;" d="M 5.714844 7.230469 C 5.734375 7.230469 5.734375 7.230469 5.753906 7.230469 C 5.78125 7.230469 5.8125 7.230469 5.839844 7.230469 C 5.882812 7.230469 5.925781 7.230469 5.972656 7.230469 C 6 7.230469 6.027344 7.230469 6.054688 7.230469 C 6.09375 7.230469 6.09375 7.230469 6.132812 7.230469 C 6.195312 7.238281 6.195312 7.238281 6.226562 7.273438 C 6.257812 7.324219 6.261719 7.351562 6.261719 7.410156 C 6.261719 7.429688 6.261719 7.445312 6.261719 7.464844 C 6.261719 7.488281 6.261719 7.507812 6.261719 7.53125 C 6.261719 7.5625 6.261719 7.5625 6.261719 7.597656 C 6.261719 7.667969 6.261719 7.742188 6.257812 7.8125 C 6.257812 7.863281 6.257812 7.914062 6.257812 7.964844 C 6.257812 8.082031 6.257812 8.199219 6.257812 8.320312 C 6.257812 8.453125 6.257812 8.589844 6.257812 8.722656 C 6.257812 9 6.253906 9.28125 6.253906 9.558594 C 6.269531 9.558594 6.285156 9.558594 6.304688 9.554688 C 6.460938 9.554688 6.617188 9.554688 6.773438 9.554688 C 6.855469 9.554688 6.933594 9.554688 7.015625 9.550781 C 7.09375 9.550781 7.171875 9.550781 7.25 9.550781 C 7.277344 9.550781 7.308594 9.550781 7.339844 9.550781 C 7.378906 9.550781 7.421875 9.550781 7.460938 9.550781 C 7.488281 9.550781 7.511719 9.550781 7.535156 9.550781 C 7.59375 9.558594 7.59375 9.558594 7.628906 9.582031 C 7.667969 9.632812 7.660156 9.679688 7.660156 9.742188 C 7.660156 9.753906 7.660156 9.765625 7.660156 9.78125 C 7.660156 9.804688 7.660156 9.832031 7.660156 9.859375 C 7.660156 9.898438 7.660156 9.9375 7.664062 9.980469 C 7.664062 10.003906 7.664062 10.03125 7.664062 10.054688 C 7.664062 10.078125 7.664062 10.101562 7.664062 10.125 C 7.652344 10.183594 7.652344 10.183594 7.625 10.214844 C 7.546875 10.253906 7.46875 10.25 7.382812 10.25 C 7.355469 10.25 7.355469 10.25 7.324219 10.25 C 7.261719 10.25 7.199219 10.25 7.132812 10.25 C 7.089844 10.25 7.046875 10.25 7 10.25 C 6.910156 10.25 6.816406 10.25 6.722656 10.25 C 6.605469 10.25 6.488281 10.25 6.367188 10.25 C 6.277344 10.25 6.1875 10.25 6.097656 10.25 C 6.050781 10.25 6.007812 10.25 5.964844 10.25 C 5.902344 10.25 5.84375 10.25 5.78125 10.25 C 5.753906 10.25 5.753906 10.25 5.726562 10.25 C 5.703125 10.25 5.703125 10.25 5.675781 10.25 C 5.65625 10.25 5.65625 10.25 5.632812 10.25 C 5.582031 10.238281 5.566406 10.21875 5.535156 10.183594 C 5.507812 10.132812 5.511719 10.09375 5.511719 10.035156 C 5.511719 10.011719 5.511719 9.988281 5.511719 9.960938 C 5.511719 9.9375 5.511719 9.910156 5.511719 9.882812 C 5.511719 9.855469 5.511719 9.828125 5.511719 9.800781 C 5.511719 9.722656 5.511719 9.648438 5.511719 9.574219 C 5.511719 9.527344 5.511719 9.480469 5.511719 9.429688 C 5.511719 9.285156 5.511719 9.136719 5.507812 8.988281 C 5.507812 8.816406 5.507812 8.648438 5.507812 8.476562 C 5.507812 8.34375 5.507812 8.214844 5.507812 8.082031 C 5.507812 8.003906 5.507812 7.925781 5.507812 7.847656 C 5.507812 7.773438 5.507812 7.699219 5.507812 7.625 C 5.507812 7.597656 5.507812 7.570312 5.507812 7.542969 C 5.507812 7.503906 5.507812 7.46875 5.507812 7.429688 C 5.507812 7.410156 5.507812 7.390625 5.507812 7.367188 C 5.523438 7.242188 5.589844 7.230469 5.714844 7.230469 Z M 5.714844 7.230469 "/>
<path style=" stroke:none;fill-rule:nonzero;fill:rgb(2.352941%,78.039217%,33.333334%);fill-opacity:1;" d="M 8.246094 7.230469 C 8.265625 7.230469 8.265625 7.230469 8.285156 7.230469 C 8.3125 7.230469 8.339844 7.230469 8.371094 7.230469 C 8.410156 7.230469 8.453125 7.230469 8.496094 7.230469 C 8.523438 7.230469 8.550781 7.230469 8.578125 7.230469 C 8.601562 7.230469 8.625 7.230469 8.652344 7.230469 C 8.710938 7.238281 8.710938 7.238281 8.746094 7.261719 C 8.78125 7.3125 8.777344 7.351562 8.777344 7.414062 C 8.777344 7.449219 8.777344 7.449219 8.78125 7.484375 C 8.777344 7.511719 8.777344 7.539062 8.777344 7.566406 C 8.777344 7.59375 8.777344 7.625 8.78125 7.652344 C 8.78125 7.730469 8.78125 7.804688 8.777344 7.882812 C 8.777344 7.964844 8.777344 8.042969 8.78125 8.125 C 8.78125 8.261719 8.78125 8.394531 8.777344 8.53125 C 8.777344 8.6875 8.777344 8.84375 8.777344 9 C 8.78125 9.136719 8.78125 9.269531 8.78125 9.402344 C 8.777344 9.484375 8.777344 9.566406 8.78125 9.644531 C 8.78125 9.71875 8.78125 9.796875 8.777344 9.871094 C 8.777344 9.898438 8.777344 9.925781 8.777344 9.953125 C 8.78125 9.992188 8.777344 10.03125 8.777344 10.066406 C 8.777344 10.089844 8.777344 10.109375 8.777344 10.132812 C 8.769531 10.183594 8.769531 10.183594 8.746094 10.21875 C 8.691406 10.253906 8.640625 10.25 8.578125 10.25 C 8.558594 10.25 8.558594 10.25 8.535156 10.25 C 8.507812 10.25 8.480469 10.25 8.453125 10.25 C 8.410156 10.25 8.371094 10.25 8.328125 10.25 C 8.300781 10.25 8.273438 10.25 8.246094 10.25 C 8.222656 10.25 8.199219 10.25 8.171875 10.25 C 8.113281 10.242188 8.113281 10.242188 8.078125 10.21875 C 8.039062 10.167969 8.042969 10.128906 8.042969 10.066406 C 8.042969 10.042969 8.042969 10.019531 8.042969 9.996094 C 8.042969 9.96875 8.042969 9.941406 8.042969 9.914062 C 8.042969 9.886719 8.042969 9.855469 8.042969 9.828125 C 8.042969 9.75 8.042969 9.675781 8.042969 9.597656 C 8.042969 9.515625 8.042969 9.4375 8.042969 9.355469 C 8.042969 9.21875 8.042969 9.085938 8.042969 8.949219 C 8.042969 8.792969 8.042969 8.636719 8.042969 8.480469 C 8.042969 8.34375 8.042969 8.210938 8.042969 8.074219 C 8.042969 7.996094 8.042969 7.914062 8.042969 7.835938 C 8.042969 7.757812 8.042969 7.683594 8.042969 7.609375 C 8.042969 7.582031 8.042969 7.554688 8.042969 7.527344 C 8.042969 7.488281 8.042969 7.449219 8.042969 7.414062 C 8.042969 7.378906 8.042969 7.378906 8.042969 7.347656 C 8.050781 7.296875 8.050781 7.296875 8.078125 7.261719 C 8.132812 7.226562 8.183594 7.230469 8.246094 7.230469 Z M 8.246094 7.230469 "/>
</g>
</svg>
