<svg width="41" height="41" viewBox="0 0 41 41" fill="none" xmlns="http://www.w3.org/2000/svg">
<g clip-path="url(#clip0_177_140)">
<path d="M0 3.84375V37.1562C0 39.279 1.72104 41 3.84375 41H37.1562C39.279 41 41 39.279 41 37.1562V3.84375C41 1.72104 39.279 0 37.1562 0H3.84375C1.72104 0 0 1.72104 0 3.84375ZM6.91362 4.32422C6.91362 5.1644 6.23232 5.8457 5.39214 5.8457C4.55196 5.8457 3.87066 5.1644 3.87066 4.32422C3.87066 3.48404 4.55196 2.80273 5.39214 2.80273C6.23232 2.80273 6.91362 3.48404 6.91362 4.32422ZM12.5591 4.32422C12.5591 5.1644 11.8778 5.8457 11.0376 5.8457C10.1975 5.8457 9.51616 5.1644 9.51616 4.32422C9.51616 3.48404 10.1975 2.80273 11.0376 2.80273C11.8778 2.80273 12.5591 3.48404 12.5591 4.32422ZM18.2046 4.32422C18.2046 5.1644 17.5233 5.8457 16.6832 5.8457C15.843 5.8457 15.1617 5.1644 15.1617 4.32422C15.1617 3.48404 15.843 2.80273 16.6832 2.80273C17.5233 2.80273 18.2046 3.48404 18.2046 4.32422ZM3.20312 8.32812H37.7969V37.1562C37.7969 37.5091 37.5097 37.7969 37.1562 37.7969H3.84375C3.49029 37.7969 3.20312 37.5091 3.20312 37.1562V8.32812Z" fill="white"/>
<path d="M33.3125 15.375H21.1406V17.9375H33.3125V15.375Z" fill="white"/>
<path d="M33.3125 28.1875H7.04688V30.75H33.3125V28.1875Z" fill="white"/>
<path d="M16.6562 15.375H7.04688V24.9844H16.6562V15.375Z" fill="white"/>
<path d="M22.6587 24.3438H21.1406V21.7812H33.3125V24.3438H23.94H22.6587Z" fill="white"/>
</g>
<defs>
<clipPath id="clip0_177_140">
<rect width="41" height="41" fill="white"/>
</clipPath>
</defs>
</svg>
