<svg width="62" height="46" viewBox="0 0 62 46" fill="none" xmlns="http://www.w3.org/2000/svg">
<path d="M46.1691 10.273C43.2916 10.273 40.5941 11.0405 38.269 12.3811C38.2363 12.4005 38.2037 12.4218 38.1712 12.4411C38.1632 12.4208 38.1562 12.4015 38.1482 12.3811C35.2152 5.12142 28.101 0 19.7916 0C8.86067 0 0 8.86079 0 19.7908C0 27.0215 3.87948 33.3461 9.66873 36.7986V43.8121C9.66873 43.8121 18.8637 43.2854 29.1128 37.2528C29.8926 36.8365 30.6414 36.3681 31.3542 35.8546C31.8438 35.5018 32.3157 35.127 32.7691 34.7317C32.7964 34.7087 32.8211 34.685 32.8485 34.663C32.8625 34.685 32.8767 34.7089 32.8909 34.7317C33.9609 36.3777 35.329 37.8112 36.9194 38.957C37.4903 39.3681 38.0882 39.7412 38.7119 40.0763C46.911 44.9005 54.2668 45.3231 54.2668 45.3231V39.7128C58.8995 36.9502 62 31.8905 62 26.1058C62 17.3615 54.9132 10.273 46.1691 10.273ZM33.6785 27.0407C32.956 28.4213 32.0228 29.6933 30.9237 30.8038C30.3107 31.424 29.6456 31.9937 28.94 32.5053C28.3754 32.912 27.7773 33.2842 27.1652 33.6133L27.0911 33.6522L27.0187 33.6953C22.2421 36.5058 17.7275 37.9849 14.7805 38.7295C14.4408 38.816 14.1126 38.8954 13.7978 38.9659V34.4548L11.784 33.2534C9.49314 31.8862 7.57284 29.9447 6.23379 27.6388C4.8578 25.2677 4.12918 22.5536 4.12918 19.7908C4.12918 15.6079 5.75837 11.6737 8.71609 8.71609C11.6746 5.75849 15.608 4.12918 19.7917 4.12918C23.9746 4.12918 27.9079 5.75837 30.8656 8.71609C32.6669 10.5175 33.9759 12.6803 34.7239 15.0408C35.2046 16.5571 35.4525 18.1555 35.4525 19.7908C35.4524 22.3515 34.8561 24.7906 33.6785 27.0407ZM50.554 22.7661C51.2543 22.7661 51.8196 23.3325 51.8196 24.032C51.8196 24.7306 51.2543 25.2978 50.554 25.2978C49.8553 25.2978 49.2899 24.7306 49.2899 24.032C49.2899 23.3325 49.8553 22.7661 50.554 22.7661ZM42.4174 22.7661C43.1179 22.7661 43.6834 23.3325 43.6834 24.032C43.6834 24.7306 43.1179 25.2978 42.4174 25.2978C41.7189 25.2978 41.1535 24.7306 41.1535 24.032C41.1533 23.3325 41.7189 22.7661 42.4174 22.7661ZM50.6651 30.36C49.4523 31.2342 47.9641 31.7485 46.3561 31.7485C43.8421 31.7485 41.6228 30.4907 40.2916 28.5712H52.4205C51.9406 29.2619 51.3461 29.8679 50.6651 30.36Z" fill="white"/>
<path d="M14.5504 19.8135C15.4809 19.8135 16.2342 19.0594 16.2342 18.1286C16.2342 17.198 15.4809 16.4438 14.5504 16.4438C13.6188 16.4438 12.8647 17.198 12.8647 18.1286C12.8646 19.0594 13.6188 19.8135 14.5504 19.8135Z" fill="white"/>
<path d="M25.3814 19.8135C26.3112 19.8135 27.0662 19.0594 27.0662 18.1286C27.0662 17.198 26.3112 16.4438 25.3814 16.4438C24.4508 16.4438 23.6958 17.198 23.6958 18.1286C23.6958 19.0594 24.4508 19.8135 25.3814 19.8135Z" fill="white"/>
<path d="M19.7916 28.4028C21.9324 28.4028 23.9146 27.7165 25.5279 26.5531C26.4365 25.8986 27.2269 25.0923 27.8655 24.1724H11.7178C13.4899 26.7278 16.4449 28.4028 19.7916 28.4028Z" fill="white"/>
</svg>
